PathFileType	4	(X/Y/Z)	SUBJ26_0_static_RCNL2025.trc
DataRate	CameraRate	NumFrames	NumMarkers	Units	OrigDataRate	OrigDataStartFrame	OrigNumFrames
100	100	13	25	mm	100	29	101
Frame#	Time	R_Shoulder			L_Shoulder			C7			J_Notch			R_Elbow			L_Elbow			R_Wrist			L_Wrist			R_Asis			L_Asis			Sacral			Thoracic			Sternum			R_Thigh_Lateral			R_Knee_Lateral			R_Shank_Lateral			R_Ankle_Lateral			R_Heel			R_Toe			L_Thigh_Lateral			L_Knee_Lateral			L_Shank_Lateral			L_Ankle_Lateral			L_Heel			L_Toe		
		X1	Y1	Z1	X2	Y2	Z2	X3	Y3	Z3	X4	Y4	Z4	X5	Y5	Z5	X6	Y6	Z6	X7	Y7	Z7	X8	Y8	Z8	X9	Y9	Z9	X10	Y10	Z10	X11	Y11	Z11	X12	Y12	Z12	X13	Y13	Z13	X14	Y14	Z14	X15	Y15	Z15	X16	Y16	Z16	X17	Y17	Z17	X18	Y18	Z18	X19	Y19	Z19	X20	Y20	Z20	X21	Y21	Z21	X22	Y22	Z22	X23	Y23	Z23	X24	Y24	Z24	X25	Y25	Z25
29	0.28000000	-216.896347	1340.539673	-66.255585	-239.947678	1353.005005	-386.442261	-305.123322	1386.881714	-211.658249	-151.859589	1304.257812	-235.845123	-285.680054	1018.572388	27.119688	-299.777527	1030.813354	-492.527679	-203.806030	782.581879	68.384497	-210.227165	804.886719	-537.058350	-140.208725	935.223633	-101.207771	-166.329895	931.345581	-401.554016	-356.409332	924.299500	-224.125137	-345.893677	1037.453125	-225.944214	-79.328987	1049.513184	-234.769333	-252.474091	593.047913	-49.555298	-273.209045	446.700439	-120.745293	-298.784393	297.072266	-78.401794	-302.740906	55.214691	-150.557098	-353.141937	40.722469	-211.186172	-178.508774	44.917480	-171.993988	-245.634109	613.872314	-435.689575	-278.647980	450.366577	-355.032227	-289.725677	268.335632	-419.633026	-295.905701	61.603214	-328.966034	-357.542633	39.003868	-280.151154	-175.276993	43.501495	-289.894470
30	0.29000000	-216.968994	1340.467163	-65.929489	-240.138565	1353.083374	-386.132324	-305.164062	1386.826050	-211.245819	-151.966431	1304.312988	-235.621490	-285.623962	1018.426147	27.231239	-299.915039	1030.932495	-492.313812	-203.725433	782.483612	68.455137	-210.222862	805.070862	-536.987488	-140.256195	935.223389	-101.199944	-166.413574	931.353699	-401.445892	-356.448792	924.289917	-223.967056	-345.940460	1037.405762	-225.789658	-79.466141	1049.490479	-234.714706	-252.623566	593.121399	-49.580791	-273.403015	446.735260	-120.628357	-299.025665	297.117584	-78.335526	-302.819763	55.166386	-150.538376	-353.135986	40.720352	-211.156891	-178.486145	44.899593	-171.944504	-245.704575	613.864563	-435.591339	-278.639679	450.311066	-355.006958	-289.671600	268.323547	-419.644958	-296.142670	61.363583	-328.864716	-357.534332	39.000961	-280.155151	-175.205902	43.460217	-289.821167
31	0.30000000	-216.959549	1340.417603	-65.677460	-240.270706	1353.202271	-385.803680	-305.253784	1386.786377	-210.942291	-152.034500	1304.163330	-235.310471	-285.626801	1018.307983	27.439898	-300.047516	1031.047119	-492.219696	-203.603554	782.365204	68.574919	-210.467651	805.229675	-536.908295	-140.378937	935.219604	-101.153183	-166.591003	931.346375	-401.419678	-356.517365	924.294006	-223.767563	-346.000763	1037.463379	-225.620132	-79.531395	1049.549194	-234.644135	-252.514267	592.984802	-49.529469	-273.508606	446.692871	-120.539932	-299.167053	297.095978	-78.258789	-302.855438	55.182690	-150.504349	-353.079681	40.643261	-211.073593	-178.527115	44.858475	-171.919037	-245.737076	613.865356	-435.592682	-278.591431	450.338074	-354.953796	-289.578064	268.361237	-419.561462	-295.886169	61.600517	-328.975983	-357.416992	38.873463	-280.154449	-175.214966	43.444405	-289.762756
32	0.31000000	-217.082031	1340.324341	-65.423500	-240.355988	1353.292725	-385.582306	-305.292786	1386.831055	-210.558456	-152.057220	1304.205566	-235.038376	-285.533081	1018.156189	27.535593	-300.163635	1031.194946	-492.099121	-203.160202	782.174744	68.484945	-210.662781	805.402863	-536.857422	-140.440887	935.085876	-101.088654	-166.645981	931.431030	-401.337219	-356.564117	924.319214	-223.640717	-346.036011	1037.447266	-225.484039	-79.605034	1049.532837	-234.521362	-252.674530	593.182678	-49.515823	-273.639679	446.750549	-120.442841	-299.236328	297.091644	-78.213943	-302.923309	55.201664	-150.460510	-353.068695	40.630470	-211.072433	-178.549759	44.837303	-171.915375	-245.777954	613.886658	-435.574524	-278.559601	450.392578	-354.884521	-289.541595	268.407349	-419.569763	-295.848938	61.639412	-328.951538	-357.514496	39.008316	-280.155853	-175.159729	43.381966	-289.743652
33	0.32000000	-217.066757	1340.262817	-65.181938	-240.437851	1353.425415	-385.314728	-305.305969	1386.846924	-210.288040	-152.211273	1304.221558	-234.752426	-285.535461	1018.068848	27.673328	-300.354706	1031.409546	-492.010956	-203.063118	782.046387	68.472570	-210.867928	805.536926	-536.898071	-140.481400	935.097168	-101.097336	-166.721436	931.505371	-401.141266	-356.685059	924.405579	-223.519623	-346.136871	1037.517578	-225.389465	-79.716385	1049.498413	-234.381622	-252.806839	593.204895	-49.470303	-273.733643	446.758301	-120.477135	-299.386536	297.028839	-78.239487	-302.934479	55.196995	-150.458023	-353.149048	40.716263	-211.040924	-178.563187	44.898296	-171.892105	-245.588821	613.869263	-435.360992	-278.565582	450.384521	-354.846771	-289.551727	268.381775	-419.505554	-295.879425	61.654144	-328.912842	-357.564209	39.112087	-280.107971	-175.257248	43.507420	-289.847473
34	0.33000000	-217.106277	1340.154175	-65.001015	-240.557358	1353.451660	-385.043640	-305.366150	1386.834717	-209.995758	-152.281937	1304.157959	-234.504944	-285.487915	1017.875610	27.782469	-300.507812	1031.513062	-491.916260	-202.923576	781.954895	68.469366	-210.999741	805.702850	-537.032990	-140.455338	935.057068	-100.886826	-166.834320	931.521362	-401.010284	-356.651611	924.388550	-223.401535	-346.119171	1037.516357	-225.232681	-79.779625	1049.550293	-234.285385	-252.890579	593.167847	-49.417713	-273.815857	446.703156	-120.417633	-299.839081	297.436523	-78.033974	-302.852539	55.149837	-150.378204	-353.163605	40.728333	-211.037109	-178.572235	44.903614	-171.887573	-245.665741	613.860901	-435.275940	-278.567749	450.379456	-354.850403	-289.461761	268.435547	-419.489929	-295.893646	61.638172	-328.886566	-357.557648	39.099133	-280.113770	-175.248032	43.423546	-289.762085
35	0.34000000	-217.358521	1340.053223	-64.636833	-240.587326	1353.532471	-384.813873	-305.391052	1386.782959	-209.711838	-152.380310	1304.116333	-234.214417	-285.508728	1017.692139	27.916817	-300.659393	1031.666382	-491.817688	-202.819641	781.808167	68.437639	-211.054504	805.888153	-537.185272	-140.471451	935.068115	-100.775078	-166.940033	931.606934	-400.975006	-356.753571	924.391479	-223.286667	-346.167633	1037.486816	-225.098770	-79.930046	1049.634766	-234.225555	-252.802658	593.074402	-49.405178	-273.961456	446.749969	-120.340889	-299.683197	297.047455	-78.159363	-302.916962	55.148853	-150.396912	-353.183350	40.641994	-211.041809	-178.584671	44.841267	-171.829849	-245.741531	613.902649	-435.306061	-278.556366	450.326599	-354.774567	-289.439972	268.270782	-419.305695	-295.887665	61.653255	-328.876129	-357.416504	38.934311	-280.133270	-175.210846	43.481529	-289.731781
36	0.35000000	-217.547455	1339.876099	-64.355621	-240.886337	1353.687134	-384.321167	-305.529205	1386.784180	-209.415894	-152.434586	1304.122681	-233.996887	-285.482239	1017.579651	28.019524	-300.833069	1031.770142	-491.788757	-202.740112	781.688354	68.413485	-211.467148	805.990021	-537.183197	-140.566208	935.144958	-100.857628	-166.999908	931.598206	-400.937073	-356.820496	924.419373	-223.129410	-346.200745	1037.497070	-224.932114	-79.957283	1049.679199	-234.169769	-252.743881	593.106445	-49.424400	-274.053253	446.731812	-120.267342	-299.702545	297.070007	-78.118820	-302.945160	55.122200	-150.333206	-353.174438	40.616974	-211.014526	-178.587189	44.837196	-171.798889	-245.751114	613.885437	-435.240112	-278.507141	450.290558	-354.727936	-289.553894	268.267822	-419.302612	-295.840454	61.640392	-328.845032	-357.539581	38.942474	-280.135101	-175.264984	43.517246	-289.851440
37	0.36000000	-217.561661	1339.883301	-64.116997	-241.000717	1353.764526	-384.060120	-305.587708	1386.750732	-209.232849	-152.504074	1304.214355	-233.819092	-285.482513	1017.424561	28.014645	-301.061279	1031.941895	-491.723999	-202.680214	781.470459	68.308836	-211.708420	806.180206	-537.301819	-140.544006	935.188171	-100.829575	-167.209183	931.664185	-400.846863	-356.939667	924.431519	-223.036224	-346.233582	1037.567871	-224.894272	-79.995422	1049.761719	-234.050964	-253.001205	593.273682	-49.301048	-274.167145	446.739471	-120.211823	-299.784332	297.064636	-78.077271	-302.918030	55.092880	-150.309265	-353.083649	40.606503	-210.984283	-178.584167	44.842319	-171.801453	-246.118286	613.941833	-435.435852	-278.535736	450.321198	-354.781830	-289.510620	268.437714	-419.473724	-295.871582	61.652264	-328.872314	-357.447388	38.967552	-280.124329	-175.217407	43.493992	-289.751068
38	0.37000000	-217.448776	1339.818237	-64.060104	-241.075974	1353.839478	-383.877563	-305.732697	1386.733032	-209.037857	-152.644135	1304.207764	-233.625046	-285.522858	1017.305176	28.051491	-301.201111	1032.112671	-491.654053	-202.627060	781.359528	68.287157	-211.923050	806.314728	-537.470062	-140.522095	935.235046	-100.685913	-167.309082	931.689392	-400.733704	-356.952209	924.442505	-222.920334	-346.335114	1037.554077	-224.788010	-80.072929	1049.758179	-233.996338	-253.082016	593.332520	-49.257408	-274.190979	446.749359	-120.160843	-299.868500	297.073212	-78.086304	-302.998688	55.229012	-150.274872	-353.144775	40.653374	-211.039551	-178.572281	44.865536	-171.811234	-246.242615	613.943970	-435.376129	-278.563873	450.338531	-354.684875	-289.497772	268.288574	-419.314728	-295.888123	61.627918	-328.829254	-357.585999	39.005344	-280.118622	-175.216339	43.445389	-289.758301
39	0.38000000	-217.645462	1339.748535	-63.768150	-241.197388	1353.907104	-383.678894	-305.792480	1386.764526	-208.783035	-152.745773	1304.229248	-233.458755	-285.591461	1017.229553	28.091503	-301.351044	1032.308228	-491.646515	-202.663681	781.255096	68.169050	-212.128410	806.505829	-537.650299	-140.357758	935.280579	-100.578934	-167.299362	931.723511	-400.678345	-357.038544	924.478455	-222.826645	-346.356140	1037.545410	-224.703140	-80.292030	1049.704468	-233.853668	-253.067810	593.326477	-49.261543	-274.195221	446.783234	-120.143799	-299.796722	297.022766	-78.090981	-302.971802	55.203869	-150.245590	-353.088470	40.637798	-210.987442	-178.575424	44.850227	-171.778046	-246.326141	614.004211	-435.382538	-278.568054	450.357391	-354.656128	-289.517548	268.468719	-419.472900	-295.868164	61.705097	-328.781036	-357.544250	39.034279	-280.068817	-175.218109	43.443546	-289.762451
40	0.39000000	-217.897095	1339.616699	-63.504436	-241.131882	1353.964722	-383.660583	-305.968323	1386.768555	-208.377502	-152.735962	1304.157715	-233.231552	-285.732788	1017.082825	28.206064	-301.519714	1032.471802	-491.626495	-202.974854	781.189240	68.223183	-212.365402	806.682922	-537.784088	-140.367844	935.231384	-100.480942	-167.391754	931.798584	-400.531525	-357.012482	924.516968	-222.738907	-346.476776	1037.616333	-224.593964	-80.313820	1049.773071	-233.815216	-253.046951	593.363586	-49.189762	-274.258759	446.785889	-120.104706	-299.802826	297.070587	-78.075226	-302.958069	55.192513	-150.260468	-353.170410	40.685081	-210.924438	-178.584427	44.859352	-171.780396	-246.390991	614.017273	-435.310028	-278.600128	450.385315	-354.551361	-289.575317	268.471497	-419.414307	-295.814972	61.653458	-328.797821	-357.413269	38.896370	-280.071991	-175.220032	43.445389	-289.764526
41	0.40000000	-218.100662	1339.538574	-63.258339	-241.197083	1354.030762	-383.477753	-306.005646	1386.709595	-208.243515	-152.789185	1304.193970	-233.098969	-285.800476	1016.968811	28.163801	-301.657684	1032.682739	-491.669739	-202.923195	781.044159	68.046406	-212.576027	806.819061	-538.024811	-140.464874	935.191223	-100.491737	-167.449921	931.873108	-400.420563	-357.113647	924.480347	-222.669571	-346.487305	1037.622070	-224.559769	-80.348068	1049.784058	-233.710602	-253.011017	593.338928	-49.129322	-274.267395	446.792816	-120.087242	-300.074707	297.436279	-77.819969	-302.924835	55.210705	-150.259369	-353.235565	40.762947	-211.009674	-178.585907	44.864990	-171.767914	-246.544037	614.001221	-435.287994	-278.583252	450.381348	-354.580078	-289.475616	268.601807	-419.642365	-295.849274	61.678169	-328.786499	-357.539551	39.055035	-280.034576	-175.209213	43.460934	-289.752625
